<?xml version="1.0" encoding="utf-8"?>
<!-- Generator: Adobe Illustrator 27.2.0, SVG Export Plug-In . SVG Version: 6.00 Build 0)  -->
<svg version="1.1" id="Ebene_1" xmlns="http://www.w3.org/2000/svg" xmlns:xlink="http://www.w3.org/1999/xlink" x="0px" y="0px"
	 viewBox="0 0 468.19 279.39" style="enable-background:new 0 0 468.19 279.39;" xml:space="preserve">
<style type="text/css">
	.st0{fill:#3E5D73;}
	.st1{fill:#6A844D;}
	.st2{fill:#FFFFFF;}
	.st3{fill:none;stroke:#3E5D73;stroke-width:1.062;stroke-miterlimit:10;}
	.st4{fill:#D5DC59;}
</style>
<g>
	<path class="st0" d="M316.83,183.45l-13.34-19.21l-3.5,0.81l15.87,22.31l-2.09,12.92l3.32-0.77l6.29-39.87l-3.27,0.76
		L316.83,183.45z M294.51,179.37c1.43,6.18-1.83,10.95-6.91,12.12c-5.22,1.21-10.09-1.64-11.54-7.91
		c-1.46-6.31,1.7-10.87,6.92-12.08C288.07,170.33,293.08,173.19,294.51,179.37 M272.84,184.32c1.79,7.77,8,11.64,14.77,10.08
		c4.95-1.14,7.78-4.62,8.5-8.14l1.27,5.5l3.18-0.73l-5.72-24.8l-3.18,0.74l1.26,5.45c-2.13-2.81-6.16-4.7-11.15-3.55
		C274.94,170.44,271.04,176.56,272.84,184.32 M244.57,203.96l3.23-0.75l2.05-22.38l11.66,19.22l3.18-0.73l2.04-26.59l-3.13,0.72
		l-1.14,23.03l-11.85-20.03l-3.18,0.73l-1.97,23.18l-11.16-20.15l-3.23,0.75L244.57,203.96z M231.4,198.72l-3.36,0.78
		c-0.14,3.52-2.49,6.41-6.71,7.39c-4.63,1.07-9.38-1.04-10.99-6.79l20.58-4.75c-0.11-0.88-0.26-1.52-0.49-2.52
		c-1.46-6.31-7.1-10.46-14.37-8.78c-7.13,1.64-11.05,7.67-9.23,15.57c1.81,7.86,8.08,11.58,15.12,9.95
		C228.16,208.13,231.34,203.66,231.4,198.72 M216.54,186.79c4.59-1.06,9.44,0.88,10.63,6.68l-17.44,4.03
		C208.76,191.65,212.05,187.83,216.54,186.79 M194.75,208.38c1.14,4.95,3.87,6.19,8.18,5.19l3.41-0.79l-0.63-2.72l-2.91,0.67
		c-2.86,0.66-4.12-0.05-4.83-3.1l-3.56-15.4l6.81-1.57l-0.62-2.68l-6.81,1.57l-1.44-6.22l-3.23,0.75l1.44,6.22l-3.45,0.8l0.62,2.68
		l3.45-0.8L194.75,208.38z M181.44,205.47c1.42,6.18-1.83,10.95-6.91,12.12c-5.22,1.21-10.09-1.64-11.54-7.91
		c-1.46-6.31,1.7-10.87,6.92-12.07C175,196.43,180.01,199.3,181.44,205.47 M159.76,210.43c1.79,7.77,8,11.64,14.77,10.08
		c4.95-1.14,7.78-4.62,8.5-8.14l1.27,5.5l3.18-0.73l-5.72-24.8l-3.18,0.73l1.26,5.45c-2.13-2.81-6.16-4.7-11.15-3.55
		C161.87,196.55,157.97,202.66,159.76,210.43 M149.91,212.75c1.43,6.18-1.83,10.95-6.91,12.12c-5.22,1.21-10.09-1.64-11.54-7.91
		c-1.46-6.31,1.7-10.87,6.92-12.08C143.47,203.71,148.48,206.57,149.91,212.75 M128.23,217.71c1.79,7.77,8,11.64,14.81,10.07
		c4.91-1.13,7.74-4.61,8.46-8.13l1.42,6.13c1.3,5.63-1.66,9.61-6.38,10.71c-4.54,1.05-8.21-0.54-10.03-3.66l-3.13,0.72
		c2.19,4.95,7.4,7.19,13.8,5.71c6.81-1.57,10.52-7.26,8.92-14.21l-5.87-25.44l-3.18,0.74l1.25,5.4c-2.13-2.81-6.24-4.64-11.14-3.5
		C130.34,203.83,126.44,209.94,128.23,217.71"/>
</g>
<g>
	<path class="st0" d="M359.31,128.31c-2.36-8.97-15.84-2.9-17-7.94c-0.39-1.68,0.8-3.15,3.57-3.79c2.82-0.65,4.84,0.46,5.53,2.6
		l5.18-1.2c-1.43-4.93-5.85-7.12-11.53-5.81c-5.91,1.36-8.88,5.45-7.96,9.44c2.12,9.17,16,3,17.14,7.91c0.4,1.73-0.9,3.36-3.9,4.06
		c-2.86,0.66-5.2-0.57-5.86-2.57l-5.36,1.24c1.27,4.49,6.32,7.06,12.31,5.67C357.34,136.56,360.29,132.53,359.31,128.31
		 M334.31,134.08c-2.36-8.98-15.83-2.9-17-7.94c-0.39-1.68,0.8-3.15,3.58-3.79c2.82-0.65,4.84,0.46,5.53,2.6l5.18-1.2
		c-1.43-4.93-5.85-7.12-11.53-5.81c-5.9,1.36-8.88,5.45-7.96,9.44c2.12,9.17,16,3,17.13,7.91c0.4,1.73-0.9,3.36-3.89,4.06
		c-2.86,0.66-5.2-0.57-5.86-2.57l-5.36,1.24c1.28,4.49,6.32,7.06,12.31,5.67C332.34,142.33,335.28,138.3,334.31,134.08
		 M309.08,139.42l-5.59,1.29c-0.5,2.17-1.92,4.13-5.1,4.86c-3.81,0.88-7.34-0.94-8.66-4.98l19.12-4.42
		c-0.06-0.89-0.21-1.72-0.41-2.58c-1.7-7.36-7.88-11.14-15.01-9.5c-7.4,1.71-11.33,7.93-9.51,15.78c1.82,7.86,8.3,11.72,15.48,10.06
		C305.54,148.52,308.68,144.11,309.08,139.42 M294.22,128.51c3.86-0.89,7.47,0.86,8.45,4.7l-13.85,3.2
		C288.45,132.32,290.72,129.31,294.22,128.51 M255.97,146.33c1.81,7.86,8.07,11.77,15.25,10.11c6.13-1.41,9.34-5.74,9.62-10.97
		l-5.59,1.29c-0.36,2.81-1.95,4.61-5.04,5.33c-4.18,0.96-7.66-1.48-8.93-6.98c-1.26-5.45,0.8-9.18,4.98-10.14
		c3.09-0.71,5.44,0.37,6.86,2.58l5.59-1.29c-2.63-4.94-7.32-7.06-13.46-5.65C258.07,132.26,254.16,138.52,255.97,146.33 M228,152.79
		c1.81,7.86,8.07,11.77,15.25,10.11c6.13-1.42,9.34-5.75,9.62-10.97l-5.59,1.29c-0.36,2.81-1.95,4.61-5.04,5.33
		c-4.18,0.96-7.66-1.48-8.93-6.98c-1.26-5.45,0.8-9.18,4.98-10.14c3.09-0.71,5.44,0.37,6.86,2.58l5.59-1.29
		c-2.62-4.94-7.32-7.06-13.46-5.65C230.11,138.71,226.2,144.97,228,152.79 M216.8,155.37c1.25,5.4-1.73,9.3-5.64,10.2
		c-3.86,0.89-8.31-1.38-9.56-6.79c-1.25-5.4,1.8-9.17,5.67-10.06C211.18,147.82,215.56,150.01,216.8,155.37 M196.3,160.01
		c1.78,7.72,8.23,11.83,14.73,10.33c4.18-0.96,6.72-3.65,7.81-6.16l0.86,3.72l5.22-1.21l-5.78-25.02l-5.22,1.21l0.84,3.63
		c-2.02-1.69-5.38-3.01-9.61-2.04C198.56,146,194.51,152.29,196.3,160.01"/>
</g>
<g>
	<path class="st0" d="M417.76,71.86l-9.49,2.19c-0.26,1.16-0.99,2.33-2.72,2.73c-2,0.46-3.86-0.35-4.72-3.26l16.85-3.89
		c-0.07-0.7-0.19-1.44-0.35-2.12c-1.83-7.9-8.26-11.54-15.8-9.8c-7.63,1.76-11.8,7.94-9.93,16.02c1.88,8.13,8.43,11.83,15.96,10.09
		C413.91,82.36,417.78,77.36,417.76,71.86 M403.11,64.77c2.04-0.47,4.1,0.34,4.62,2.62l-7.86,1.82
		C399.75,66.79,400.97,65.26,403.11,64.77 M380.79,89.68l8.9-2.06l-7.76-33.61l-8.9,2.06L380.79,89.68z M363.74,64.29
		c3.13-0.72,4.72-3.19,4.13-5.74c-0.6-2.59-3.11-4.16-6.25-3.44c-3.18,0.73-4.75,3.25-4.15,5.84
		C358.05,63.5,360.56,65.02,363.74,64.29 M365.67,93.17l8.9-2.06l-5.88-25.48l-8.9,2.05L365.67,93.17z M348.87,83.6
		c0.79,3.41-0.91,5.81-3.41,6.38c-2.5,0.58-5.06-0.79-5.86-4.24c-0.79-3.41,0.92-5.76,3.42-6.34
		C345.52,78.83,348.08,80.15,348.87,83.6 M337.49,76.57l-2.7-11.67l-8.9,2.05l7.76,33.61l8.9-2.05l-0.82-3.54
		c1.9,2,4.75,2.97,8.34,2.14c6.09-1.41,9.71-7.46,7.84-15.59c-1.88-8.13-7.78-11.93-13.86-10.53
		C340.51,71.8,338.32,73.94,337.49,76.57 M308.3,92.97c-0.84-3.63,0.77-5.78,3.04-6.3c2.27-0.52,4.7,0.68,5.54,4.32
		c0.85,3.68-0.85,5.84-3.12,6.36C311.44,97.89,309.15,96.65,308.3,92.97 M325.92,88.9c-1.87-8.08-8.78-11.7-16.36-9.95
		c-7.58,1.75-12.21,8.03-10.34,16.12c1.88,8.13,8.74,11.76,16.33,10.01C323.13,103.32,327.8,97.03,325.92,88.9 M288.6,110.96
		l8.9-2.06l-3.43-14.85c-1.54-6.68-6.37-9.96-12.82-8.47c-3.77,0.87-6.28,3.65-7.41,6.64c-2.36-2.56-5.76-3.6-9.57-2.72
		c-3.45,0.8-5.59,2.92-6.57,5.3l-0.78-3.36l-8.9,2.06l5.88,25.48l8.9-2.06l-3.16-13.67c-0.64-2.77,0.64-4.69,3.27-5.3
		c2.54-0.59,4.54,0.58,5.17,3.35l3.16,13.67l8.9-2.05L277,99.24c-0.64-2.77,0.64-4.69,3.23-5.29c2.54-0.59,4.58,0.57,5.22,3.34
		L288.6,110.96z"/>
</g>
<g>
	<path class="st1" d="M117.73,193.17c-23.11,15.64-27.94,32.85-14.49,51.63C83.49,232.14,89.06,204.34,117.73,193.17"/>
</g>
<g>
	<path class="st1" d="M99.71,218.89c0.99,19.46,9.63,26.89,25.91,22.29C108.2,253.77,96.22,240.12,99.71,218.89"/>
</g>
<g>
	<path class="st1" d="M166.88,92.16c-16.68,8.42-28.93,5.03-36.78-10.17C139.95,92.65,152.21,96.04,166.88,92.16"/>
</g>
<g>
	<path class="st2" d="M157.06,124.45c1.7-3.97,4.06-8.02,6.16-14.26c-10.13,0.43-17.39-2.04-21.8-7.39
		c10.6,3.25,21.09,0.35,31.46-8.71c7.29-1.65,12.34-0.67,15.16,2.92c10.2-2.58,16.73-0.53,19.59,6.15
		c-11.55-0.56-16.51,5.3-25.66,14.19c-2.46,2.39-6.61,6.61-7.88,13.47c-1.49,8.03,3.43,8,3.94,17.53
		c1.4,22.75-22.48,27.1-42.7,33.64c-27.56,10.24-44.34,21.08-46.99,40.3c-0.91-16.88,10.13-31.78,33.1-44.71
		c8.55-6.28,10.16-10.33,4.83-12.16c-25.34,10.26-43.97,5.65-55.9-13.84c14.11,5.34,26.65,6.43,37.61,3.25
		c-28.85,0.57-44.45-8.69-46.8-27.77c13.32,9.61,26.69,14.26,40.12,13.93c-31.83-5.71-45.48-20.14-40.95-43.27
		c13.13,15.69,27.56,25.44,43.27,29.25C69.49,108.55,58.72,90.6,71.3,73.1c8.51,19.77,19.78,32.9,33.8,39.37
		c-27.4-26.98-31.86-48.52-13.37-64.63c1.74,21.57,8.55,38.53,20.43,50.89c-18.68-32.84-18.56-54.2,0.37-64.07
		c-1.87,13.19,2.78,30.59,13.93,52.19c5.52,10.21,4.9,21.79-1.86,34.73c-7.95,17.11-5.04,26.21,8.73,27.3
		c4.68,0.23,11.53-3.84,16.62-11.21C149.95,137.67,155.54,128.01,157.06,124.45"/>
</g>
<g>
	<path class="st3" d="M157.06,124.45c1.7-3.97,4.06-8.02,6.16-14.26c-10.13,0.43-17.39-2.04-21.8-7.39
		c10.6,3.25,21.09,0.35,31.46-8.71c7.29-1.65,12.34-0.67,15.16,2.92c10.2-2.58,16.73-0.53,19.59,6.15
		c-11.55-0.56-16.51,5.3-25.66,14.19c-2.46,2.39-6.61,6.61-7.88,13.47c-1.49,8.03,3.43,8,3.94,17.53
		c1.4,22.75-22.48,27.1-42.7,33.64c-27.56,10.24-44.34,21.08-46.99,40.3c-0.91-16.88,10.13-31.78,33.1-44.71
		c8.55-6.28,10.16-10.33,4.83-12.16c-25.34,10.26-43.97,5.65-55.9-13.84c14.11,5.34,26.65,6.43,37.61,3.25
		c-28.85,0.57-44.45-8.69-46.8-27.77c13.32,9.61,26.69,14.26,40.12,13.93c-31.83-5.71-45.48-20.14-40.95-43.27
		c13.13,15.69,27.56,25.44,43.27,29.25C69.49,108.55,58.72,90.6,71.3,73.1c8.51,19.77,19.78,32.9,33.8,39.37
		c-27.4-26.98-31.86-48.52-13.37-64.63c1.74,21.57,8.55,38.53,20.43,50.89c-18.68-32.84-18.56-54.2,0.37-64.07
		c-1.87,13.19,2.78,30.59,13.93,52.19c5.52,10.21,4.9,21.79-1.86,34.73c-7.95,17.11-5.04,26.21,8.73,27.3
		c4.68,0.23,11.53-3.84,16.62-11.21C149.95,137.67,155.54,128.01,157.06,124.45z"/>
</g>
<g>
	<path class="st2" d="M173.16,107.56c-0.46-0.99-0.76-1.96-0.92-2.89c0.66-5.46,3.55-6.46,8.84-3.25c0.7,0.42,1.02,0.99,0.82,1.95
		C180.43,108.77,175.61,109.44,173.16,107.56"/>
</g>
<g>
	<path class="st0" d="M178.41,100.08c0.81,0.3,1.69,0.75,2.66,1.33c0.7,0.42,1.02,0.99,0.82,1.95c-0.79,2.9-2.54,4.43-4.38,4.94
		c-1.92-0.6-3.16-2.48-2.94-4.48C174.8,101.84,176.4,100.27,178.41,100.08"/>
</g>
<g>
	<path d="M173.76,107.94"/>
</g>
<g>
	<path class="st0" d="M172.16,106.24c0.16,0.5,0.35,1,0.59,1.51c0.03,0.06,0.07,0.12,0.13,0.17c0.51,0.39,1.11,0.68,1.76,0.86
		c1.01,0.27,2.15,0.26,3.24-0.09c1.09-0.35,2.14-1.05,2.99-2.14c0.61-0.79,1.11-1.79,1.45-3.02c0.01-0.02,0.01-0.04,0.01-0.05
		c0.12-0.58,0.07-1.05-0.11-1.45c-0.18-0.41-0.5-0.72-0.92-0.97c-2.76-1.68-4.94-2.24-6.54-1.66c-1.64,0.59-2.62,2.32-2.97,5.22
		c-0.01,0.05-0.01,0.1,0,0.15C171.88,105.23,172,105.73,172.16,106.24 M173.52,107.27c-0.2-0.44-0.36-0.88-0.5-1.3
		c-0.14-0.44-0.25-0.88-0.33-1.31c0.31-2.51,1.1-3.98,2.38-4.44c1.33-0.48,3.25,0.06,5.77,1.59c0.27,0.17,0.47,0.35,0.57,0.58
		c0.1,0.23,0.12,0.52,0.04,0.91c-0.3,1.11-0.76,2-1.3,2.71c-0.73,0.94-1.63,1.54-2.55,1.84c-0.92,0.3-1.88,0.31-2.73,0.08
		C174.38,107.77,173.91,107.56,173.52,107.27"/>
</g>
<g>
	<path class="st0" d="M179.88,100.25c-0.45-0.22-0.88-0.42-1.3-0.58c-0.07-0.03-0.14-0.04-0.21-0.03c-1.11,0.1-2.11,0.59-2.86,1.32
		c-0.75,0.74-1.25,1.72-1.37,2.83s0.16,2.18,0.74,3.05c0.57,0.87,1.43,1.55,2.48,1.88c0.09,0.03,0.19,0.04,0.29,0.01
		c1.05-0.29,2.08-0.9,2.94-1.86c0.74-0.84,1.35-1.95,1.74-3.37c0.01-0.02,0.01-0.04,0.01-0.05c0.12-0.58,0.07-1.05-0.11-1.45
		c-0.18-0.41-0.5-0.72-0.92-0.97C180.81,100.74,180.34,100.47,179.88,100.25 M178.35,100.54c0.35,0.14,0.73,0.31,1.13,0.51
		c0.43,0.22,0.89,0.47,1.36,0.76c0.28,0.17,0.47,0.35,0.57,0.58c0.1,0.23,0.12,0.52,0.05,0.9c-0.35,1.28-0.9,2.27-1.55,3.01
		c-0.7,0.79-1.53,1.29-2.38,1.56c-0.8-0.28-1.46-0.82-1.91-1.49c-0.47-0.71-0.69-1.58-0.6-2.47c0.1-0.89,0.5-1.69,1.11-2.29
		C176.72,101.02,177.49,100.64,178.35,100.54"/>
</g>
<g>
	<path class="st2" d="M175.38,100.98c0.89-0.1,1.68,0.39,1.75,1.08s-0.59,1.33-1.49,1.43c-0.89,0.1-1.68-0.39-1.75-1.08
		C173.82,101.71,174.48,101.07,175.38,100.98"/>
</g>
<g>
	<path class="st0" d="M190.64,100.7c-0.24,0.42-0.67,0.61-0.98,0.44s-0.36-0.65-0.12-1.07c0.24-0.42,0.67-0.61,0.98-0.44
		C190.82,99.81,190.87,100.28,190.64,100.7"/>
</g>
<g>
	<path class="st4" d="M109.44,80.98c-12.36-16.01-12.14-30.09,0.65-42.26C102.21,51.97,101.99,66.05,109.44,80.98"/>
</g>
<g>
	<path class="st4" d="M92.88,89.08c-11.83-12.61-12.8-24.62-2.91-36.02C84.35,64.98,85.32,76.99,92.88,89.08"/>
</g>
<g>
	<path class="st4" d="M85.12,107.81c-14.44-7.14-19.2-17.31-14.29-30.49C69.81,89.56,74.57,99.73,85.12,107.81"/>
</g>
<g>
	<path class="st4" d="M79.42,126.52c-13.44-3.68-19.16-11.52-17.17-23.53C63.41,113.55,69.13,121.39,79.42,126.52"/>
</g>
<g>
	<path class="st4" d="M153.47,172.24c17.42-6.76,23.1-18.13,17.05-34.14C171.85,152.56,166.16,163.94,153.47,172.24"/>
</g>
<g>
	<path class="st4" d="M88.5,145.71c-13.23,2.02-21.31-2.63-24.24-13.93C69.39,140.59,77.47,145.23,88.5,145.71"/>
</g>
<g>
	<path class="st4" d="M104.66,160.45c-11.62,6.62-20.83,5.19-27.63-4.32C84.99,162.51,94.2,163.95,104.66,160.45"/>
</g>
</svg>
